<mxfile host="www.draw.io" modified="2019-11-05T03:27:15.855Z" agent="Mozilla/5.0 (Macintosh; Intel Mac OS X 10_14_0) AppleWebKit/537.36 (KHTML, like Gecko) Chrome/77.0.3865.120 Safari/537.36" etag="IHMivFkaPBS29FddDx5e" version="12.2.0" type="github" pages="1">
  <diagram id="IGneSwPGgaRRzDSN1f2Z" name="Page-1">
    <mxGraphModel dx="1723" dy="1711" grid="1" gridSize="10" guides="1" tooltips="1" connect="1" arrows="1" fold="1" page="1" pageScale="1" pageWidth="827" pageHeight="1169" math="0" shadow="0">
      <root>
        <mxCell id="0"/>
        <mxCell id="1" parent="0"/>
        <mxCell id="Wt0aWhjGFWQSCMT6oAi0-1" value="" style="rounded=0;whiteSpace=wrap;html=1;" vertex="1" parent="1">
          <mxGeometry x="120" y="-100" width="480" height="90" as="geometry"/>
        </mxCell>
        <mxCell id="Wt0aWhjGFWQSCMT6oAi0-2" value="" style="rounded=0;whiteSpace=wrap;html=1;" vertex="1" parent="1">
          <mxGeometry x="440" y="-92" width="80" height="79" as="geometry"/>
        </mxCell>
        <mxCell id="Wt0aWhjGFWQSCMT6oAi0-3" value="" style="rounded=0;whiteSpace=wrap;html=1;" vertex="1" parent="1">
          <mxGeometry x="120" y="330" width="480" height="170" as="geometry"/>
        </mxCell>
        <mxCell id="Wt0aWhjGFWQSCMT6oAi0-4" value="" style="rounded=0;whiteSpace=wrap;html=1;" vertex="1" parent="1">
          <mxGeometry x="247" y="375" width="100" height="100" as="geometry"/>
        </mxCell>
        <mxCell id="Wt0aWhjGFWQSCMT6oAi0-13" value="" style="rounded=0;whiteSpace=wrap;html=1;" vertex="1" parent="1">
          <mxGeometry x="120" y="500" width="480" height="80" as="geometry"/>
        </mxCell>
        <mxCell id="Wt0aWhjGFWQSCMT6oAi0-14" value="基础资源创建" style="rounded=0;whiteSpace=wrap;html=1;" vertex="1" parent="1">
          <mxGeometry x="30" y="500" width="90" height="80" as="geometry"/>
        </mxCell>
        <mxCell id="Wt0aWhjGFWQSCMT6oAi0-15" value="" style="edgeStyle=orthogonalEdgeStyle;rounded=0;orthogonalLoop=1;jettySize=auto;html=1;" edge="1" parent="1" source="Wt0aWhjGFWQSCMT6oAi0-16" target="Wt0aWhjGFWQSCMT6oAi0-18">
          <mxGeometry relative="1" as="geometry"/>
        </mxCell>
        <mxCell id="Wt0aWhjGFWQSCMT6oAi0-16" value="新建仓" style="rounded=0;whiteSpace=wrap;html=1;" vertex="1" parent="1">
          <mxGeometry x="183" y="512" width="80" height="20" as="geometry"/>
        </mxCell>
        <mxCell id="Wt0aWhjGFWQSCMT6oAi0-17" value="" style="edgeStyle=orthogonalEdgeStyle;rounded=0;orthogonalLoop=1;jettySize=auto;html=1;" edge="1" parent="1" source="Wt0aWhjGFWQSCMT6oAi0-18" target="Wt0aWhjGFWQSCMT6oAi0-19">
          <mxGeometry relative="1" as="geometry"/>
        </mxCell>
        <mxCell id="Wt0aWhjGFWQSCMT6oAi0-18" value="新建仓波次" style="rounded=0;whiteSpace=wrap;html=1;" vertex="1" parent="1">
          <mxGeometry x="313" y="512" width="80" height="20" as="geometry"/>
        </mxCell>
        <mxCell id="Wt0aWhjGFWQSCMT6oAi0-19" value="设置仓分组" style="rounded=0;whiteSpace=wrap;html=1;fillColor=#d80073;strokeColor=#A50040;fontColor=#ffffff;" vertex="1" parent="1">
          <mxGeometry x="443" y="512" width="80" height="20" as="geometry"/>
        </mxCell>
        <mxCell id="Wt0aWhjGFWQSCMT6oAi0-20" value="" style="edgeStyle=orthogonalEdgeStyle;rounded=0;orthogonalLoop=1;jettySize=auto;html=1;" edge="1" parent="1" source="Wt0aWhjGFWQSCMT6oAi0-21" target="Wt0aWhjGFWQSCMT6oAi0-22">
          <mxGeometry relative="1" as="geometry"/>
        </mxCell>
        <mxCell id="Wt0aWhjGFWQSCMT6oAi0-21" value="创建配送品牌" style="rounded=0;whiteSpace=wrap;html=1;" vertex="1" parent="1">
          <mxGeometry x="183" y="547" width="80" height="20" as="geometry"/>
        </mxCell>
        <mxCell id="Wt0aWhjGFWQSCMT6oAi0-22" value="配送资源" style="rounded=0;whiteSpace=wrap;html=1;" vertex="1" parent="1">
          <mxGeometry x="313" y="547" width="80" height="20" as="geometry"/>
        </mxCell>
        <mxCell id="Wt0aWhjGFWQSCMT6oAi0-23" value="WRC/URC" style="rounded=0;whiteSpace=wrap;html=1;" vertex="1" parent="1">
          <mxGeometry x="600" y="500" width="90" height="80" as="geometry"/>
        </mxCell>
        <mxCell id="Wt0aWhjGFWQSCMT6oAi0-30" value="" style="rounded=0;whiteSpace=wrap;html=1;" vertex="1" parent="1">
          <mxGeometry x="120" y="160" width="480" height="170" as="geometry"/>
        </mxCell>
        <mxCell id="Wt0aWhjGFWQSCMT6oAi0-31" value="服务产品规则" style="rounded=0;whiteSpace=wrap;html=1;" vertex="1" parent="1">
          <mxGeometry x="30" y="160" width="90" height="170" as="geometry"/>
        </mxCell>
        <mxCell id="Wt0aWhjGFWQSCMT6oAi0-32" value="服务产品&lt;br&gt;规则定义" style="rounded=0;whiteSpace=wrap;html=1;" vertex="1" parent="1">
          <mxGeometry x="307" y="232.5" width="80" height="30" as="geometry"/>
        </mxCell>
        <mxCell id="Wt0aWhjGFWQSCMT6oAi0-33" value="TNS" style="rounded=0;whiteSpace=wrap;html=1;" vertex="1" parent="1">
          <mxGeometry x="600" y="160" width="90" height="170" as="geometry"/>
        </mxCell>
        <mxCell id="Wt0aWhjGFWQSCMT6oAi0-34" value="" style="rounded=0;whiteSpace=wrap;html=1;" vertex="1" parent="1">
          <mxGeometry x="464" y="188" width="106" height="120" as="geometry"/>
        </mxCell>
        <mxCell id="Wt0aWhjGFWQSCMT6oAi0-37" value="圈仓" style="rounded=0;whiteSpace=wrap;html=1;" vertex="1" parent="1">
          <mxGeometry x="483" y="200" width="70" height="20" as="geometry"/>
        </mxCell>
        <mxCell id="Wt0aWhjGFWQSCMT6oAi0-38" value="圈服务" style="rounded=0;whiteSpace=wrap;html=1;" vertex="1" parent="1">
          <mxGeometry x="483" y="280" width="70" height="20" as="geometry"/>
        </mxCell>
        <mxCell id="Wt0aWhjGFWQSCMT6oAi0-39" value="仓优先级" style="rounded=0;whiteSpace=wrap;html=1;" vertex="1" parent="1">
          <mxGeometry x="483" y="252" width="70" height="20" as="geometry"/>
        </mxCell>
        <mxCell id="Wt0aWhjGFWQSCMT6oAi0-40" value="" style="endArrow=classic;html=1;entryX=0;entryY=0.5;entryDx=0;entryDy=0;" edge="1" parent="1" source="Wt0aWhjGFWQSCMT6oAi0-32" target="Wt0aWhjGFWQSCMT6oAi0-34">
          <mxGeometry width="50" height="50" relative="1" as="geometry">
            <mxPoint x="200" y="130" as="sourcePoint"/>
            <mxPoint x="290" y="190" as="targetPoint"/>
          </mxGeometry>
        </mxCell>
        <mxCell id="Wt0aWhjGFWQSCMT6oAi0-46" value="线路维护" style="rounded=0;whiteSpace=wrap;html=1;" vertex="1" parent="1">
          <mxGeometry x="30" y="330" width="90" height="170" as="geometry"/>
        </mxCell>
        <mxCell id="Wt0aWhjGFWQSCMT6oAi0-47" value="线路维护" style="rounded=0;whiteSpace=wrap;html=1;" vertex="1" parent="1">
          <mxGeometry x="130" y="415" width="70" height="20" as="geometry"/>
        </mxCell>
        <mxCell id="Wt0aWhjGFWQSCMT6oAi0-48" value="中小件网络" style="rounded=0;whiteSpace=wrap;html=1;" vertex="1" parent="1">
          <mxGeometry x="263" y="385" width="70" height="20" as="geometry"/>
        </mxCell>
        <mxCell id="Wt0aWhjGFWQSCMT6oAi0-49" value="其他网络" style="rounded=0;whiteSpace=wrap;html=1;" vertex="1" parent="1">
          <mxGeometry x="263" y="446" width="70" height="20" as="geometry"/>
        </mxCell>
        <mxCell id="Wt0aWhjGFWQSCMT6oAi0-50" value="网络&lt;br&gt;选择" style="endArrow=classic;html=1;dashed=1;entryX=0;entryY=0.5;entryDx=0;entryDy=0;exitX=1;exitY=0.5;exitDx=0;exitDy=0;" edge="1" parent="1" source="Wt0aWhjGFWQSCMT6oAi0-47" target="Wt0aWhjGFWQSCMT6oAi0-4">
          <mxGeometry width="50" height="50" relative="1" as="geometry">
            <mxPoint x="170" y="-43" as="sourcePoint"/>
            <mxPoint x="220" y="-93" as="targetPoint"/>
          </mxGeometry>
        </mxCell>
        <mxCell id="Wt0aWhjGFWQSCMT6oAi0-51" value="大件网络" style="rounded=0;whiteSpace=wrap;html=1;" vertex="1" parent="1">
          <mxGeometry x="262" y="415" width="70" height="20" as="geometry"/>
        </mxCell>
        <mxCell id="Wt0aWhjGFWQSCMT6oAi0-52" value="" style="rounded=0;whiteSpace=wrap;html=1;" vertex="1" parent="1">
          <mxGeometry x="423" y="375" width="167" height="100" as="geometry"/>
        </mxCell>
        <mxCell id="Wt0aWhjGFWQSCMT6oAi0-53" value="" style="endArrow=classic;html=1;dashed=1;entryX=0;entryY=0.5;entryDx=0;entryDy=0;exitX=1;exitY=0.5;exitDx=0;exitDy=0;" edge="1" parent="1" source="Wt0aWhjGFWQSCMT6oAi0-4" target="Wt0aWhjGFWQSCMT6oAi0-52">
          <mxGeometry width="50" height="50" relative="1" as="geometry">
            <mxPoint x="350" y="57" as="sourcePoint"/>
            <mxPoint x="400" y="7" as="targetPoint"/>
          </mxGeometry>
        </mxCell>
        <mxCell id="Wt0aWhjGFWQSCMT6oAi0-54" value="多段咬合&lt;br&gt;单段聚合" style="text;html=1;resizable=0;points=[];align=center;verticalAlign=middle;labelBackgroundColor=#ffffff;" vertex="1" connectable="0" parent="Wt0aWhjGFWQSCMT6oAi0-53">
          <mxGeometry x="-0.2329" y="3" relative="1" as="geometry">
            <mxPoint x="6" y="0.5" as="offset"/>
          </mxGeometry>
        </mxCell>
        <mxCell id="Wt0aWhjGFWQSCMT6oAi0-56" value="时效过滤" style="rounded=0;whiteSpace=wrap;html=1;" vertex="1" parent="1">
          <mxGeometry x="432" y="415.5" width="70" height="20" as="geometry"/>
        </mxCell>
        <mxCell id="Wt0aWhjGFWQSCMT6oAi0-62" value="阡陌" style="rounded=0;whiteSpace=wrap;html=1;" vertex="1" parent="1">
          <mxGeometry x="600" y="330" width="90" height="170" as="geometry"/>
        </mxCell>
        <mxCell id="Wt0aWhjGFWQSCMT6oAi0-65" value="&lt;br&gt;商家订购" style="rounded=0;whiteSpace=wrap;html=1;" vertex="1" parent="1">
          <mxGeometry x="30" y="-100" width="90" height="90" as="geometry"/>
        </mxCell>
        <mxCell id="Wt0aWhjGFWQSCMT6oAi0-66" value="入驻&amp;amp;订购" style="rounded=0;whiteSpace=wrap;html=1;" vertex="1" parent="1">
          <mxGeometry x="30" y="-180" width="90" height="80" as="geometry"/>
        </mxCell>
        <mxCell id="Wt0aWhjGFWQSCMT6oAi0-67" value="" style="rounded=0;whiteSpace=wrap;html=1;" vertex="1" parent="1">
          <mxGeometry x="120" y="-180" width="480" height="80" as="geometry"/>
        </mxCell>
        <mxCell id="Wt0aWhjGFWQSCMT6oAi0-68" value="" style="edgeStyle=orthogonalEdgeStyle;rounded=0;orthogonalLoop=1;jettySize=auto;html=1;startArrow=none;startFill=0;" edge="1" parent="1" source="Wt0aWhjGFWQSCMT6oAi0-69" target="Wt0aWhjGFWQSCMT6oAi0-73">
          <mxGeometry relative="1" as="geometry"/>
        </mxCell>
        <mxCell id="Wt0aWhjGFWQSCMT6oAi0-69" value="商家入驻" style="rounded=0;whiteSpace=wrap;html=1;" vertex="1" parent="1">
          <mxGeometry x="179" y="-150" width="70" height="20" as="geometry"/>
        </mxCell>
        <mxCell id="Wt0aWhjGFWQSCMT6oAi0-70" value="" style="edgeStyle=orthogonalEdgeStyle;rounded=0;orthogonalLoop=1;jettySize=auto;html=1;startArrow=none;startFill=0;entryX=0;entryY=0.5;entryDx=0;entryDy=0;exitX=0;exitY=0.5;exitDx=0;exitDy=0;" edge="1" parent="1" source="Wt0aWhjGFWQSCMT6oAi0-73" target="Wt0aWhjGFWQSCMT6oAi0-69">
          <mxGeometry relative="1" as="geometry">
            <Array as="points">
              <mxPoint x="160" y="-40"/>
              <mxPoint x="160" y="-140"/>
            </Array>
          </mxGeometry>
        </mxCell>
        <mxCell id="Wt0aWhjGFWQSCMT6oAi0-71" value="否" style="text;html=1;resizable=0;points=[];align=center;verticalAlign=middle;labelBackgroundColor=#ffffff;" vertex="1" connectable="0" parent="Wt0aWhjGFWQSCMT6oAi0-70">
          <mxGeometry x="0.1825" relative="1" as="geometry">
            <mxPoint as="offset"/>
          </mxGeometry>
        </mxCell>
        <mxCell id="Wt0aWhjGFWQSCMT6oAi0-72" style="edgeStyle=orthogonalEdgeStyle;rounded=0;orthogonalLoop=1;jettySize=auto;html=1;entryX=0;entryY=0.5;entryDx=0;entryDy=0;startArrow=none;startFill=0;" edge="1" parent="1" source="Wt0aWhjGFWQSCMT6oAi0-73" target="Wt0aWhjGFWQSCMT6oAi0-75">
          <mxGeometry relative="1" as="geometry"/>
        </mxCell>
        <mxCell id="Wt0aWhjGFWQSCMT6oAi0-73" value="审核" style="rhombus;whiteSpace=wrap;html=1;" vertex="1" parent="1">
          <mxGeometry x="183" y="-60" width="62" height="40" as="geometry"/>
        </mxCell>
        <mxCell id="Wt0aWhjGFWQSCMT6oAi0-74" value="" style="edgeStyle=orthogonalEdgeStyle;rounded=0;orthogonalLoop=1;jettySize=auto;html=1;startArrow=none;startFill=0;" edge="1" parent="1" source="Wt0aWhjGFWQSCMT6oAi0-75" target="Wt0aWhjGFWQSCMT6oAi0-77">
          <mxGeometry relative="1" as="geometry"/>
        </mxCell>
        <mxCell id="Wt0aWhjGFWQSCMT6oAi0-75" value="服务产品订购" style="rounded=0;whiteSpace=wrap;html=1;" vertex="1" parent="1">
          <mxGeometry x="307" y="-145" width="80" height="20" as="geometry"/>
        </mxCell>
        <mxCell id="Wt0aWhjGFWQSCMT6oAi0-76" value="" style="edgeStyle=orthogonalEdgeStyle;rounded=0;orthogonalLoop=1;jettySize=auto;html=1;startArrow=none;startFill=0;entryX=0;entryY=0.405;entryDx=0;entryDy=0;entryPerimeter=0;" edge="1" parent="1" source="Wt0aWhjGFWQSCMT6oAi0-77" target="Wt0aWhjGFWQSCMT6oAi0-2">
          <mxGeometry relative="1" as="geometry"/>
        </mxCell>
        <mxCell id="Wt0aWhjGFWQSCMT6oAi0-77" value="订购审核" style="rounded=0;whiteSpace=wrap;html=1;" vertex="1" parent="1">
          <mxGeometry x="313" y="-70" width="68" height="20" as="geometry"/>
        </mxCell>
        <mxCell id="Wt0aWhjGFWQSCMT6oAi0-78" value="商家划仓" style="rounded=0;whiteSpace=wrap;html=1;" vertex="1" parent="1">
          <mxGeometry x="448" y="-36" width="68" height="20" as="geometry"/>
        </mxCell>
        <mxCell id="Wt0aWhjGFWQSCMT6oAi0-79" value="商家划配" style="rounded=0;whiteSpace=wrap;html=1;" vertex="1" parent="1">
          <mxGeometry x="447" y="-89" width="68" height="20" as="geometry"/>
        </mxCell>
        <mxCell id="Wt0aWhjGFWQSCMT6oAi0-80" value="范围裁剪" style="rounded=0;whiteSpace=wrap;html=1;" vertex="1" parent="1">
          <mxGeometry x="448" y="-62" width="68" height="20" as="geometry"/>
        </mxCell>
        <mxCell id="Wt0aWhjGFWQSCMT6oAi0-81" value="usa" style="rounded=0;whiteSpace=wrap;html=1;" vertex="1" parent="1">
          <mxGeometry x="600" y="-179.5" width="90" height="170" as="geometry"/>
        </mxCell>
        <mxCell id="Wt0aWhjGFWQSCMT6oAi0-84" value="" style="shape=flexArrow;endArrow=classic;html=1;" edge="1" parent="1">
          <mxGeometry width="50" height="50" relative="1" as="geometry">
            <mxPoint x="720" y="512" as="sourcePoint"/>
            <mxPoint x="720" y="-158" as="targetPoint"/>
          </mxGeometry>
        </mxCell>
        <mxCell id="Wt0aWhjGFWQSCMT6oAi0-85" value="新&lt;br&gt;增&lt;br&gt;仓&lt;br&gt;配&lt;br&gt;行&lt;br&gt;业&lt;br&gt;SOP&lt;br&gt;流程" style="text;html=1;resizable=0;points=[];align=center;verticalAlign=middle;labelBackgroundColor=#ffffff;" vertex="1" connectable="0" parent="Wt0aWhjGFWQSCMT6oAi0-84">
          <mxGeometry x="-0.003" y="2" relative="1" as="geometry">
            <mxPoint as="offset"/>
          </mxGeometry>
        </mxCell>
        <mxCell id="Wt0aWhjGFWQSCMT6oAi0-88" value="&lt;font style=&quot;font-size: 18px&quot;&gt;仓配服务产品SOP流程-优化&lt;/font&gt;" style="text;html=1;resizable=0;points=[];autosize=1;align=left;verticalAlign=top;spacingTop=-4;" vertex="1" parent="1">
          <mxGeometry x="233" y="-220" width="240" height="20" as="geometry"/>
        </mxCell>
        <mxCell id="Wt0aWhjGFWQSCMT6oAi0-89" value="商家" style="rounded=0;whiteSpace=wrap;html=1;" vertex="1" parent="1">
          <mxGeometry x="-60" y="-179.5" width="90" height="80" as="geometry"/>
        </mxCell>
        <mxCell id="Wt0aWhjGFWQSCMT6oAi0-90" value="商家运营小二&lt;br&gt;" style="rounded=0;whiteSpace=wrap;html=1;" vertex="1" parent="1">
          <mxGeometry x="-60" y="-101" width="90" height="90" as="geometry"/>
        </mxCell>
        <mxCell id="Wt0aWhjGFWQSCMT6oAi0-91" value="仓配运营小二" style="rounded=0;whiteSpace=wrap;html=1;" vertex="1" parent="1">
          <mxGeometry x="-60" y="330" width="90" height="170" as="geometry"/>
        </mxCell>
        <mxCell id="Wt0aWhjGFWQSCMT6oAi0-92" value="仓配运营小二/行业小二" style="rounded=0;whiteSpace=wrap;html=1;" vertex="1" parent="1">
          <mxGeometry x="-60" y="160" width="90" height="170" as="geometry"/>
        </mxCell>
        <mxCell id="Wt0aWhjGFWQSCMT6oAi0-94" value="仓配运营小二" style="rounded=0;whiteSpace=wrap;html=1;" vertex="1" parent="1">
          <mxGeometry x="-60" y="500" width="90" height="80" as="geometry"/>
        </mxCell>
        <mxCell id="Wt0aWhjGFWQSCMT6oAi0-55" value="单段聚合" style="rounded=0;whiteSpace=wrap;html=1;" vertex="1" parent="1">
          <mxGeometry x="433" y="385" width="70" height="20" as="geometry"/>
        </mxCell>
        <mxCell id="Wt0aWhjGFWQSCMT6oAi0-57" value="仓波次过滤" style="rounded=0;whiteSpace=wrap;html=1;" vertex="1" parent="1">
          <mxGeometry x="470" y="446" width="70" height="20" as="geometry"/>
        </mxCell>
        <mxCell id="Wt0aWhjGFWQSCMT6oAi0-102" value="服务抽取" style="rounded=0;whiteSpace=wrap;html=1;" vertex="1" parent="1">
          <mxGeometry x="506.5" y="385" width="70" height="20" as="geometry"/>
        </mxCell>
        <mxCell id="Wt0aWhjGFWQSCMT6oAi0-103" value="时效打标" style="rounded=0;whiteSpace=wrap;html=1;" vertex="1" parent="1">
          <mxGeometry x="506.5" y="415.5" width="70" height="20" as="geometry"/>
        </mxCell>
        <mxCell id="Wt0aWhjGFWQSCMT6oAi0-105" value="圈波次" style="rounded=0;whiteSpace=wrap;html=1;" vertex="1" parent="1">
          <mxGeometry x="483" y="227" width="70" height="20" as="geometry"/>
        </mxCell>
        <mxCell id="Wt0aWhjGFWQSCMT6oAi0-109" value="" style="edgeStyle=orthogonalEdgeStyle;rounded=0;orthogonalLoop=1;jettySize=auto;html=1;entryX=0;entryY=0.5;entryDx=0;entryDy=0;" edge="1" parent="1" source="Wt0aWhjGFWQSCMT6oAi0-107" target="Wt0aWhjGFWQSCMT6oAi0-32">
          <mxGeometry relative="1" as="geometry">
            <mxPoint x="300" y="248" as="targetPoint"/>
          </mxGeometry>
        </mxCell>
        <mxCell id="Wt0aWhjGFWQSCMT6oAi0-107" value="服务产品&lt;br&gt;创建" style="rounded=0;whiteSpace=wrap;html=1;" vertex="1" parent="1">
          <mxGeometry x="145" y="232.5" width="80" height="30" as="geometry"/>
        </mxCell>
        <mxCell id="Wt0aWhjGFWQSCMT6oAi0-111" value="行业小二" style="rounded=0;whiteSpace=wrap;html=1;" vertex="1" parent="1">
          <mxGeometry x="-60" y="-10" width="90" height="170" as="geometry"/>
        </mxCell>
        <mxCell id="Wt0aWhjGFWQSCMT6oAi0-112" value="可售网络裁剪" style="rounded=0;whiteSpace=wrap;html=1;" vertex="1" parent="1">
          <mxGeometry x="30" y="-10" width="90" height="170" as="geometry"/>
        </mxCell>
        <mxCell id="Wt0aWhjGFWQSCMT6oAi0-113" value="" style="rounded=0;whiteSpace=wrap;html=1;" vertex="1" parent="1">
          <mxGeometry x="120" y="-10" width="480" height="170" as="geometry"/>
        </mxCell>
        <mxCell id="Wt0aWhjGFWQSCMT6oAi0-116" value="" style="edgeStyle=orthogonalEdgeStyle;rounded=0;orthogonalLoop=1;jettySize=auto;html=1;" edge="1" parent="1" source="Wt0aWhjGFWQSCMT6oAi0-114" target="Wt0aWhjGFWQSCMT6oAi0-115">
          <mxGeometry relative="1" as="geometry"/>
        </mxCell>
        <mxCell id="Wt0aWhjGFWQSCMT6oAi0-114" value="菜鸟网络视图" style="rounded=0;whiteSpace=wrap;html=1;" vertex="1" parent="1">
          <mxGeometry x="151" y="30" width="100" height="90" as="geometry"/>
        </mxCell>
        <mxCell id="Wt0aWhjGFWQSCMT6oAi0-115" value="网络裁剪" style="rounded=0;whiteSpace=wrap;html=1;" vertex="1" parent="1">
          <mxGeometry x="287" y="45" width="100" height="60" as="geometry"/>
        </mxCell>
        <mxCell id="Wt0aWhjGFWQSCMT6oAi0-117" value="可售网络" style="rounded=0;whiteSpace=wrap;html=1;" vertex="1" parent="1">
          <mxGeometry x="430" y="45" width="100" height="60" as="geometry"/>
        </mxCell>
        <mxCell id="Wt0aWhjGFWQSCMT6oAi0-118" value="" style="edgeStyle=orthogonalEdgeStyle;rounded=0;orthogonalLoop=1;jettySize=auto;html=1;" edge="1" parent="1">
          <mxGeometry relative="1" as="geometry">
            <mxPoint x="391" y="75" as="sourcePoint"/>
            <mxPoint x="427" y="75" as="targetPoint"/>
            <Array as="points">
              <mxPoint x="417" y="75"/>
              <mxPoint x="417" y="75"/>
            </Array>
          </mxGeometry>
        </mxCell>
        <mxCell id="Wt0aWhjGFWQSCMT6oAi0-119" value="SNC" style="rounded=0;whiteSpace=wrap;html=1;" vertex="1" parent="1">
          <mxGeometry x="600" y="-10" width="90" height="170" as="geometry"/>
        </mxCell>
      </root>
    </mxGraphModel>
  </diagram>
</mxfile>
